<svg xmlns="http://www.w3.org/2000/svg"><path fill="currentColor" id="icon" d="M322.027 832.054c386.417 0 597.77-320.144 597.77-597.77 0-9.094 0-18.146-.614-27.157A427.46 427.46 0 0 0 1024 98.378a419.349 419.349 0 0 1-120.668 33.055 210.821 210.821 0 0 0 92.365-116.204A421.028 421.028 0 0 1 862.29 66.225C782.725-18.38 649.64-22.464 565.037 57.1a210.289 210.289 0 0 0-60.779 200.734A596.46 596.46 0 0 1 71.27 38.331a210.248 210.248 0 0 0 65.045 280.453 208.527 208.527 0 0 1-95.355-26.296v2.662a210.166 210.166 0 0 0 168.55 205.947 209.756 209.756 0 0 1-94.863 3.604 210.33 210.33 0 0 0 196.28 145.9 421.56 421.56 0 0 1-260.915 90.112A427.67 427.67 0 0 1 0 737.682a594.78 594.78 0 0 0 322.027 94.208"/></svg>